<?xml version="1.0" encoding="utf-8"?>
<!-- Generator: Adobe Illustrator 28.1.0, SVG Export Plug-In . SVG Version: 6.00 Build 0)  -->
<svg version="1.1" id="Layer_1" xmlns="http://www.w3.org/2000/svg" xmlns:xlink="http://www.w3.org/1999/xlink" x="0px" y="0px"
	 viewBox="0 0 607.3 99" style="enable-background:new 0 0 607.3 99;" xml:space="preserve">
<style type="text/css">
	.st0{fill:#FFE18D;stroke:#FFC335;stroke-linecap:round;stroke-linejoin:round;}
	.st1{fill:#FFFFFF;stroke:#FFC335;stroke-linecap:round;stroke-linejoin:round;}
	.st2{fill:none;stroke:#F8C023;stroke-linecap:round;stroke-linejoin:round;}
	.st3{fill:none;stroke:#FFC335;stroke-linecap:round;stroke-linejoin:round;}
	.st4{opacity:0.25;}
	.st5{fill:none;stroke:#FFC335;stroke-width:0.477;stroke-linecap:round;stroke-linejoin:round;}
	.st6{opacity:0.5;}
	.st7{fill:none;stroke:#FFC335;stroke-width:0.558;stroke-linecap:round;stroke-linejoin:round;}
	.st8{fill:none;stroke:#FFC335;stroke-width:0.434;stroke-linecap:round;stroke-linejoin:round;}
</style>
<path class="st0" d="M106.9,78.9c-4.2,0-7.7,3.4-7.7,7.7v11.9h15.4V86.5C114.6,82.3,111.1,78.9,106.9,78.9z"/>
<path class="st1" d="M118.5,88.4c-2.2,0-3.9,1.8-3.9,3.9v6.1h7.9v-6.1C122.5,90.1,120.7,88.4,118.5,88.4
	C118.5,88.4,118.5,88.4,118.5,88.4z"/>
<path class="st1" d="M95.3,88.4c-2.2,0-3.9,1.8-3.9,3.9v6.1h7.9v-6.1C99.2,90.1,97.5,88.4,95.3,88.4C95.3,88.4,95.3,88.4,95.3,88.4z
	"/>
<rect x="110.8" y="66" class="st1" width="58.2" height="32.4"/>
<rect x="158" y="66" class="st0" width="11.1" height="32.5"/>
<rect x="128.6" y="79.5" class="st0" width="11.4" height="19"/>
<line class="st2" x1="0.5" y1="98.5" x2="606.8" y2="98.5"/>
<circle class="st1" cx="458.3" cy="81.3" r="8.4"/>
<line class="st3" x1="458.3" y1="98.4" x2="458.3" y2="86.8"/>
<circle class="st1" cx="437.2" cy="84.7" r="6.7"/>
<line class="st3" x1="437.2" y1="98.4" x2="437.2" y2="89.1"/>
<rect x="144.9" y="73.4" class="st0" width="5.7" height="5.5"/>
<rect x="116.9" y="73.4" class="st0" width="5.7" height="5.5"/>
<rect x="552.8" y="41" class="st1" width="21.8" height="57.5"/>
<rect x="574.7" y="41" class="st0" width="6.2" height="57.5"/>
<rect x="557.5" y="46.7" class="st1" width="12.4" height="51.7"/>
<rect x="560.3" y="84.9" class="st1" width="7" height="13.6"/>
<rect x="561.6" y="37.4" class="st1" width="4.5" height="3.6"/>
<rect x="566.1" y="37.4" class="st0" width="4" height="3.6"/>
<rect x="472.8" y="78.9" class="st3" width="57.7" height="19.6"/>
<rect x="530.5" y="78.9" class="st0" width="8.8" height="19.6"/>
<rect x="480.9" y="82.8" class="st0" width="6" height="6.7"/>
<rect x="492.7" y="82.8" class="st0" width="6" height="6.7"/>
<rect x="504.5" y="82.8" class="st0" width="6" height="6.7"/>
<rect x="516.3" y="82.8" class="st0" width="6" height="6.7"/>
<rect x="477.9" y="74.4" class="st3" width="47.4" height="4.5"/>
<rect x="525.3" y="74.4" class="st0" width="6.5" height="4.5"/>
<path class="st1" d="M180.8,78.9c-4.2,0-7.7,3.4-7.7,7.7v11.9h15.4V86.5C188.5,82.3,185,78.9,180.8,78.9z"/>
<path class="st1" d="M192.4,88.4c-2.2,0-3.9,1.8-3.9,3.9c0,0,0,0,0,0v6.1h7.9v-6.1C196.4,90.1,194.6,88.4,192.4,88.4
	C192.4,88.4,192.4,88.4,192.4,88.4z"/>
<path class="st1" d="M169.2,88.4c-2.2,0-3.9,1.8-3.9,3.9v6.1h7.9v-6.1C173.1,90.1,171.4,88.4,169.2,88.4
	C169.2,88.4,169.2,88.4,169.2,88.4z"/>
<rect x="17.5" y="86.7" class="st1" width="11.3" height="11.8"/>
<rect x="40.1" y="78.9" class="st0" width="7.7" height="19.6"/>
<rect x="28.8" y="78.9" class="st1" width="11.3" height="19.6"/>
<rect x="44" y="86.7" class="st1" width="11.3" height="11.8"/>
<rect x="55.3" y="86.7" class="st0" width="6.9" height="11.8"/>
<line class="st3" x1="32.6" y1="82.7" x2="32.6" y2="94.7"/>
<line class="st3" x1="36.3" y1="82.7" x2="36.3" y2="94.7"/>
<g class="st4">
	<path class="st5" d="M17,63.6h15.3C32.3,63.6,24.7,55.7,17,63.6z"/>
	<path class="st5" d="M14.5,63.6H21C21,63.6,17.8,60.3,14.5,63.6z"/>
</g>
<g class="st6">
	<path class="st7" d="M449.8,48.2h16.6C466.4,48.2,458.1,39.7,449.8,48.2z"/>
	<path class="st7" d="M459.4,48.2H476C476,48.2,467.7,39.7,459.4,48.2z"/>
</g>
<g class="st4">
	<path class="st8" d="M574.6,3.2h12.9C587.5,3.2,581.1-3.5,574.6,3.2z"/>
	<path class="st8" d="M581.9,3.2h9.1C591,3.2,586.5-1.5,581.9,3.2z"/>
</g>
</svg>
