<?xml version="1.0" encoding="utf-8"?>
<!-- Generator: Adobe Illustrator 28.1.0, SVG Export Plug-In . SVG Version: 6.00 Build 0)  -->
<svg version="1.1" id="Layer_1" xmlns="http://www.w3.org/2000/svg" xmlns:xlink="http://www.w3.org/1999/xlink" x="0px" y="0px"
	 viewBox="0 0 658.1 325.9" style="enable-background:new 0 0 658.1 325.9;" xml:space="preserve">
<style type="text/css">
	.st0{fill:none;stroke:#00A1C6;stroke-width:1.785;stroke-linecap:round;stroke-linejoin:round;}
	.st1{fill:none;stroke:#00A1C6;stroke-width:1.785;stroke-linecap:round;stroke-linejoin:round;stroke-miterlimit:4;}
	.st2{fill:#FFFFFF;stroke:#00A1C6;stroke-width:1.785;stroke-linecap:round;stroke-linejoin:round;stroke-miterlimit:4;}
	.st3{fill:#77D2FC;stroke:#00A1C6;stroke-width:1.785;stroke-linecap:round;stroke-linejoin:round;stroke-miterlimit:4;}
	.st4{fill:#77D2FC;stroke:#00A1C6;stroke-width:1.785;stroke-linecap:round;stroke-linejoin:round;}
	.st5{fill:#FFFFFF;stroke:#00A1C6;stroke-width:1.785;stroke-linecap:round;stroke-linejoin:round;}
</style>
<line class="st0" x1="94.9" y1="299.5" x2="614" y2="300.3"/>
<line class="st0" x1="47" y1="299.4" x2="73.6" y2="299.5"/>
<rect x="314.6" y="165.5" transform="matrix(1.588247e-03 -1 1 1.588247e-03 142.9456 614.145)" class="st1" width="128.9" height="140"/>
<rect x="152.5" y="198" transform="matrix(1.588247e-03 -1 1 1.588247e-03 -7.1743 476.5982)" class="st2" width="165.1" height="87.8"/>
<rect x="206" y="232.5" transform="matrix(1.588247e-03 -1 1 1.588247e-03 46.0898 530.1168)" class="st3" width="165.1" height="19"/>
<rect x="208.2" y="176.2" transform="matrix(1.588247e-03 -1 1 1.588247e-03 32.7133 404.7533)" class="st3" width="21.6" height="19.5"/>
<rect x="240.5" y="176.3" transform="matrix(1.588247e-03 -1 1 1.588247e-03 64.8608 437.0543)" class="st3" width="21.6" height="19.5"/>
<rect x="208.2" y="211.5" transform="matrix(1.588247e-03 -1 1 1.588247e-03 -2.5644 439.8614)" class="st3" width="21.6" height="19.5"/>
<rect x="240.4" y="211.5" transform="matrix(1.588247e-03 -1 1 1.588247e-03 29.5841 472.1634)" class="st3" width="21.6" height="19.5"/>
<rect x="487.5" y="236.9" transform="matrix(1.588247e-03 -1 1 1.588247e-03 272.5675 812.0316)" class="st2" width="110.9" height="65.2"/>
<rect x="531.2" y="258.5" transform="matrix(1.588247e-03 -1 1 1.588247e-03 316.1629 855.8332)" class="st3" width="110.9" height="22.2"/>
<rect x="523" y="227.9" transform="matrix(1.588247e-03 -1 1 1.588247e-03 294.9988 765.8247)" class="st3" width="16.1" height="14.5"/>
<rect x="546.9" y="228" transform="matrix(1.588247e-03 -1 1 1.588247e-03 318.8807 789.8186)" class="st3" width="16.1" height="14.5"/>
<rect x="522.9" y="254.1" transform="matrix(1.588247e-03 -1 1 1.588247e-03 268.7964 791.9045)" class="st3" width="16.1" height="14.5"/>
<rect x="546.9" y="254.1" transform="matrix(1.588247e-03 -1 1 1.588247e-03 292.6753 815.8974)" class="st3" width="16.1" height="14.5"/>
<polygon class="st4" points="387.2,0.9 366.4,0.9 366.4,18.2 376.6,18.2 350.5,60.5 387.2,60.6 423.8,60.6 "/>
<rect x="246" y="162.3" transform="matrix(1.588247e-03 -1 1 1.588247e-03 161.0422 570.3304)" class="st2" width="240.3" height="84.4"/>
<rect x="296.7" y="196.1" transform="matrix(1.588247e-03 -1 1 1.588247e-03 211.5796 621.1071)" class="st3" width="240.3" height="17"/>
<rect x="384.9" y="64" transform="matrix(1.588247e-03 -1 1 1.588247e-03 323.6663 469.1874)" class="st3" width="23.8" height="17"/>
<line class="st0" x1="344" y1="306.3" x2="344.2" y2="110.1"/>
<line class="st0" x1="366" y1="306.4" x2="366.2" y2="110.1"/>
<line class="st0" x1="388" y1="306.4" x2="388.3" y2="110.1"/>
<rect x="354.4" y="50.4" transform="matrix(1.588247e-03 -1 1 1.588247e-03 293.2723 438.6502)" class="st1" width="23.8" height="44"/>
<polygon class="st5" points="366.4,0.9 329.6,60.5 366.3,60.5 403,60.6 "/>
<circle class="st4" cx="449" cy="263.4" r="30"/>
<line class="st0" x1="448.9" y1="324.8" x2="448.9" y2="283"/>
<path class="st5" d="M495.3,183.2c0,0-23.7,65.6-23.7,87.6s7.5,35.7,23.5,35.8s23.6-13.7,23.6-35.7S495.3,183.2,495.3,183.2z"/>
<line class="st0" x1="495.1" y1="324.9" x2="495.2" y2="283.1"/>
<polyline class="st0" points="165.6,324.4 165.6,277.7 165.7,251.3 "/>
<path class="st5" d="M138.3,246.2c-5.6,0-10.1,4.5-10.2,10.1c0,0,0,0,0,0l20.3,0C148.5,250.7,143.9,246.2,138.3,246.2L138.3,246.2z"
	/>
<path class="st4" d="M138.3,266.5c5.6,0,10.1-4.5,10.1-10.1v0l-20.3,0C128.2,261.9,132.7,266.4,138.3,266.5
	C138.3,266.5,138.3,266.5,138.3,266.5z"/>
<path class="st5" d="M193,246.3c-5.6,0-10.1,4.5-10.1,10.1l0,0l20.3,0C203.2,250.8,198.6,246.3,193,246.3
	C193,246.3,193,246.3,193,246.3z"/>
<path class="st4" d="M193,266.5c5.6,0,10.1-4.5,10.1-10.1v0l-20.3,0C182.9,262,187.4,266.5,193,266.5C193,266.5,193,266.5,193,266.5
	z"/>
<path class="st5" d="M165.7,229.2c-5.6,0-10.1,4.5-10.1,10.1v0l20.3,0C175.8,233.8,171.3,229.2,165.7,229.2
	C165.7,229.2,165.7,229.2,165.7,229.2z"/>
<path class="st4" d="M165.7,249.5c5.6,0,10.1-4.5,10.1-10.1v0l-20.3,0C155.6,244.9,160.1,249.5,165.7,249.5
	C165.7,249.5,165.7,249.5,165.7,249.5z"/>
<path class="st0" d="M165.6,282l-17.2,0c-7.9,0-10.1-4.5-10.1-15.5"/>
<path class="st0" d="M165.6,282l17.2,0c7.9,0,10.1-4.4,10.2-15.5"/>
<rect x="223" y="278" transform="matrix(1.588247e-03 -1 1 1.588247e-03 -55.7724 528.6625)" class="st2" width="27.8" height="28.5"/>
<rect x="242.1" y="287.4" transform="matrix(1.588247e-03 -1 1 1.588247e-03 -36.6833 547.8428)" class="st3" width="27.8" height="9.8"/>
<line class="st0" x1="222.6" y1="306.1" x2="222.5" y2="324.4"/>
<line class="st0" x1="251.1" y1="306.2" x2="251.1" y2="324.5"/>
<line class="st0" x1="232.9" y1="306.1" x2="232.9" y2="324.5"/>
<line class="st0" x1="260.9" y1="306.2" x2="260.8" y2="324.5"/>
<path class="st5" d="M95.2,105.4l85.8,0.1C181,105.6,138.2,61.4,95.2,105.4z"/>
<path class="st4" d="M144.9,105.5l85.8,0.1C230.6,105.6,187.8,61.5,144.9,105.5z"/>
<path class="st5" d="M505,140.7l85.8,0.1C590.8,140.8,547.9,96.6,505,140.7z"/>
<path class="st4" d="M553.6,140.7l60.6,0.1C614.2,140.8,584,109.6,553.6,140.7z"/>
<line class="st0" x1="657.2" y1="325" x2="0.9" y2="325"/>
</svg>
