<?xml version="1.0" encoding="utf-8"?>
<!-- Generator: Adobe Illustrator 28.1.0, SVG Export Plug-In . SVG Version: 6.00 Build 0)  -->
<svg version="1.1" id="Layer_1" xmlns="http://www.w3.org/2000/svg" xmlns:xlink="http://www.w3.org/1999/xlink" x="0px" y="0px"
	 viewBox="0 0 59.9 50" style="enable-background:new 0 0 59.9 50;" xml:space="preserve">
<style type="text/css">
	.st0{fill:#00A1C6;}
</style>
<path class="st0" d="M40.7,27.3c1.4,0.4,2.9,0.6,4.4,0.6c1.9,0,3.8-0.4,5.5-1.1c-1.4,5.1-4.7,13.8-11.3,14.8
	c-0.6,0.1-1.1,0.5-1.3,1.1l-1.5,5.2c-0.2,0.8,0.3,1.7,1.1,1.9c0.1,0,0.1,0,0.2,0c0.5,0.1,1,0.1,1.5,0.1c7.9,0,15.8-8.3,19.1-20.1
	c1.9-7,2.5-17.4-2.3-24C53.5,2.2,49.6,0.2,44.5,0h-0.1c-7.7,0-13.9,6.2-13.9,13.9C30.5,20.2,34.7,25.7,40.7,27.3z"/>
<path class="st0" d="M1.8,20.8c1.8,3.2,4.8,5.6,8.4,6.6c1.4,0.4,2.9,0.6,4.4,0.6c1.9,0,3.8-0.4,5.5-1.1c-1.4,5.1-4.7,13.8-11.3,14.8
	c-0.6,0.1-1.1,0.5-1.3,1.1L6,47.9c-0.2,0.8,0.3,1.7,1.1,1.9c0.1,0,0.1,0,0.2,0C7.8,50,8.3,50,8.8,50c7.9,0,15.8-8.3,19.1-20.1
	c1.9-7,2.5-17.4-2.3-24C22.9,2.2,19,0.2,14,0h-0.1C6.2,0,0,6.2,0,13.9C0,16.3,0.6,18.7,1.8,20.8z"/>
</svg>
